<svg id="Слой_1" data-name="Слой 1" xmlns="http://www.w3.org/2000/svg" viewBox="0 0 224.35 185.18"><defs><style>.cls-1{fill:#838384;}</style></defs><title>cart-svg</title><path class="cls-1" d="M91.11,89c6.78,33.45,23.64,85,23,107.37-.15,5.06-10.08,14-8.46,18.45.6,1.65.72,5.83,2,7,.63.6,4.76,1.16,5.63,1.17,34.92.13,107.08.33,141.75,0,1.35,0,3.52-1.76,4.67-3.79a11,11,0,0,0,1.17-5.37,8.1,8.1,0,0,0-2.51-5.58,10.28,10.28,0,0,0-3.74-2.12c-31.75-.25-95.58-.12-126.75-.12-2.5,0,0-6.06.17-8.37s-.81-9.72,1.5-9.79c40.75-1.33,104.67-13,143.17-16.67a6.56,6.56,0,0,0,3.46-2.17,7.69,7.69,0,0,0,1.38-3.83c.33-20.33.76-47,.67-72.33a8.22,8.22,0,0,0-2.23-4.71A8.92,8.92,0,0,0,271.5,86c-38.33-.67-124.92-.23-162.17-.57-2.15,0-2.48-3.94-3.33-7.68A20.14,20.14,0,0,0,103.17,71c-.76-1-2.88-3-4.17-3-9.08-.17-30.17-.17-38,0-1.57,0-4.45,1.94-5.85,4.13a10.09,10.09,0,0,0-1.32,5.12,11.26,11.26,0,0,0,1.92,5.58A7.43,7.43,0,0,0,60,85.5c.26,0,7.79.2,15.75.25C82.83,85.8,90.4,85.46,91.11,89Z" transform="translate(-53.83 -67.88)"/><circle class="cls-1" cx="75.72" cy="170.84" r="14.33"/><circle class="cls-1" cx="180.99" cy="170.84" r="14.33"/></svg>