<svg id="Слой_1" data-name="Слой 1" xmlns="http://www.w3.org/2000/svg" viewBox="0 0 99.43 9.5"><defs><style>.cls-1{fill:#333;}.cls-2{fill:none;stroke:#333;stroke-miterlimit:10;stroke-width:0.5px;}</style></defs><title>mail-svg</title><path class="cls-1" d="M.2,10.63h39c.15,0,.29-.25.43-.25H.63c-.15,0-.29.25-.43.25Z" transform="translate(-0.2 -6.25)"/><path class="cls-1" d="M55.2,10.63h44c.15,0,.29-.25.43-.25h-44c-.15,0-.29.25-.43.25Z" transform="translate(-0.2 -6.25)"/><rect class="cls-2" x="41.72" y="0.25" width="11" height="9" rx="1" ry="1"/><path class="cls-1" d="M42.69,8.38l2.38,2.11c.55.49,1.4,1.57,2.2,1.72s1.59-.79,2.15-1.35l2.48-2.45c.23-.23-.12-.58-.35-.35-.91.9-3.13,4.07-4.57,3.45a10.36,10.36,0,0,1-2.07-1.83L43,8c-.24-.21-.6.14-.35.35Z" transform="translate(-0.2 -6.25)"/></svg>